<?xml version="1.0" encoding="UTF-8"?>
<!DOCTYPE svg PUBLIC "-//W3C//DTD SVG 1.1//EN" "http://www.w3.org/Graphics/SVG/1.1/DTD/svg11.dtd">
<svg xmlns="http://www.w3.org/2000/svg" version="1.1" width="512px" height="512px" style="shape-rendering:geometricPrecision; text-rendering:geometricPrecision; image-rendering:optimizeQuality; fill-rule:evenodd; clip-rule:evenodd" xmlns:xlink="http://www.w3.org/1999/xlink">
<g><path style="opacity:0.99" fill="#000000" d="M 234.5,31.5 C 319.59,26.8054 387.757,58.1387 439,125.5C 484.795,195.324 492.128,268.991 461,346.5C 423.571,423.895 362.071,468.061 276.5,479C 191.387,484.184 123.221,453.017 72,385.5C 26.2162,315.769 18.8829,242.103 50,164.5C 87.5858,87.0924 149.086,42.7591 234.5,31.5 Z M 321.5,171.5 C 335.842,172.857 341.342,180.524 338,194.5C 318.321,215.346 298.154,235.679 277.5,255.5C 297.459,274.959 317.293,294.626 337,314.5C 342.984,327.866 338.817,336.199 324.5,339.5C 321.302,339.378 318.302,338.545 315.5,337C 295.653,316.986 275.653,297.153 255.5,277.5C 236.374,297.126 217.041,316.626 197.5,336C 186.514,342.336 178.348,339.836 173,328.5C 171.993,323.889 172.66,319.555 175,315.5C 194.319,295.348 213.819,275.348 233.5,255.5C 214.514,236.014 195.347,216.68 176,197.5C 170.477,184.873 174.477,176.539 188,172.5C 191.32,173.168 194.487,174.335 197.5,176C 216.68,195.347 236.014,214.514 255.5,233.5C 275.32,214.181 294.986,194.681 314.5,175C 316.925,173.787 319.259,172.621 321.5,171.5 Z"/></g>
</svg>
