<?xml version="1.0" encoding="UTF-8"?>
<!DOCTYPE svg PUBLIC "-//W3C//DTD SVG 1.1//EN" "http://www.w3.org/Graphics/SVG/1.1/DTD/svg11.dtd">
<svg xmlns="http://www.w3.org/2000/svg" version="1.1" width="512px" height="512px" style="shape-rendering:geometricPrecision; text-rendering:geometricPrecision; image-rendering:optimizeQuality; fill-rule:evenodd; clip-rule:evenodd" xmlns:xlink="http://www.w3.org/1999/xlink">
<g><path style="opacity:0.993" fill="#000000" d="M 33.5,-0.5 C 87.8333,-0.5 142.167,-0.5 196.5,-0.5C 216.697,5.20485 228.197,18.5382 231,39.5C 231.667,89.8333 231.667,140.167 231,190.5C 229.445,206.111 221.945,217.944 208.5,226C 202.79,228.681 196.79,230.347 190.5,231C 140.167,231.667 89.8333,231.667 39.5,231C 18.5382,228.197 5.20485,216.697 -0.5,196.5C -0.5,142.167 -0.5,87.8333 -0.5,33.5C 3.20187,20.6251 10.8685,10.7918 22.5,4C 26.307,2.57157 29.9736,1.07157 33.5,-0.5 Z"/></g>
<g><path style="opacity:0.993" fill="#000000" d="M 314.5,-0.5 C 368.833,-0.5 423.167,-0.5 477.5,-0.5C 490.375,3.20187 500.208,10.8685 507,22.5C 508.428,26.307 509.928,29.9736 511.5,33.5C 511.5,87.8333 511.5,142.167 511.5,196.5C 505.795,216.697 492.462,228.197 471.5,231C 421.167,231.667 370.833,231.667 320.5,231C 304.889,229.445 293.056,221.945 285,208.5C 282.319,202.79 280.653,196.79 280,190.5C 279.333,140.167 279.333,89.8333 280,39.5C 282.803,18.5382 294.303,5.20485 314.5,-0.5 Z"/></g>
<g><path style="opacity:0.993" fill="#000000" d="M 196.5,511.5 C 142.167,511.5 87.8333,511.5 33.5,511.5C 20.6251,507.798 10.7918,500.131 4,488.5C 2.57157,484.693 1.07157,481.026 -0.5,477.5C -0.5,423.167 -0.5,368.833 -0.5,314.5C 5.20485,294.303 18.5382,282.803 39.5,280C 89.8333,279.333 140.167,279.333 190.5,280C 206.111,281.555 217.944,289.055 226,302.5C 228.681,308.21 230.347,314.21 231,320.5C 231.667,370.833 231.667,421.167 231,471.5C 228.197,492.462 216.697,505.795 196.5,511.5 Z"/></g>
<g><path style="opacity:0.993" fill="#000000" d="M 511.5,314.5 C 511.5,368.833 511.5,423.167 511.5,477.5C 507.798,490.375 500.131,500.208 488.5,507C 484.693,508.428 481.026,509.928 477.5,511.5C 423.167,511.5 368.833,511.5 314.5,511.5C 294.303,505.795 282.803,492.462 280,471.5C 279.333,421.167 279.333,370.833 280,320.5C 281.555,304.889 289.055,293.056 302.5,285C 308.21,282.319 314.21,280.653 320.5,280C 370.833,279.333 421.167,279.333 471.5,280C 492.462,282.803 505.795,294.303 511.5,314.5 Z"/></g>
</svg>
