<?xml version="1.0" encoding="UTF-8"?>
<!DOCTYPE svg PUBLIC "-//W3C//DTD SVG 1.1//EN" "http://www.w3.org/Graphics/SVG/1.1/DTD/svg11.dtd">
<svg xmlns="http://www.w3.org/2000/svg" version="1.1" width="512px" height="512px" style="shape-rendering:geometricPrecision; text-rendering:geometricPrecision; image-rendering:optimizeQuality; fill-rule:evenodd; clip-rule:evenodd" xmlns:xlink="http://www.w3.org/1999/xlink">
<g><path style="opacity:0.982" fill="#000000" d="M 377.5,-0.5 C 387.167,-0.5 396.833,-0.5 406.5,-0.5C 456.88,7.70156 490.38,36.0349 507,84.5C 508.715,91.2585 510.215,97.9252 511.5,104.5C 511.5,114.167 511.5,123.833 511.5,133.5C 507.871,156.878 498.704,177.878 484,196.5C 443.167,237.333 402.333,278.167 361.5,319C 327.13,345.874 288.796,353.541 246.5,342C 228.781,335.979 213.114,326.646 199.5,314C 188.013,301.851 185.513,288.018 192,272.5C 204.515,254.002 221.015,249.502 241.5,259C 264.074,281.543 288.741,284.209 315.5,267C 355.361,227.472 394.861,187.639 434,147.5C 445.798,127.369 445.131,107.702 432,88.5C 415.374,69.6349 395.207,64.4683 371.5,73C 367.241,74.9343 363.241,77.2677 359.5,80C 336.833,102.667 314.167,125.333 291.5,148C 287.722,150.944 283.722,151.277 279.5,149C 260.155,141.902 240.155,138.235 219.5,138C 215.673,134.692 214.506,130.526 216,125.5C 249.167,92.3333 282.333,59.1667 315.5,26C 333.844,11.6115 354.511,2.77814 377.5,-0.5 Z"/></g>
<g><path style="opacity:0.982" fill="#000000" d="M 133.5,511.5 C 123.5,511.5 113.5,511.5 103.5,511.5C 53.6619,502.838 20.4952,474.505 4,426.5C 2.28494,419.741 0.784944,413.075 -0.5,406.5C -0.5,396.833 -0.5,387.167 -0.5,377.5C 3.17685,354.142 12.3435,333.142 27,314.5C 68.1667,273.333 109.333,232.167 150.5,191C 188.45,162.262 229.784,156.262 274.5,173C 291.251,180.094 305.417,190.594 317,204.5C 325.857,221.546 323.357,236.713 309.5,250C 298.05,257.433 286.05,258.766 273.5,254C 265.972,249.736 258.972,244.736 252.5,239C 232.491,229.383 213.491,231.05 195.5,244C 157,282.5 118.5,321 80,359.5C 65.055,380.579 64.7217,401.913 79,423.5C 96.1537,442.246 116.654,447.079 140.5,438C 144.336,435.916 148.003,433.583 151.5,431C 174.5,408 197.5,385 220.5,362C 222.137,361.399 223.803,360.899 225.5,360.5C 246.778,368.435 268.778,372.602 291.5,373C 295.327,376.308 296.494,380.474 295,385.5C 261.833,418.667 228.667,451.833 195.5,485C 177.156,499.389 156.489,508.222 133.5,511.5 Z"/></g>
</svg>
