<?xml version="1.0" encoding="UTF-8"?>
<!DOCTYPE svg PUBLIC "-//W3C//DTD SVG 1.1//EN" "http://www.w3.org/Graphics/SVG/1.1/DTD/svg11.dtd">
<svg xmlns="http://www.w3.org/2000/svg" version="1.1" width="512px" height="512px" style="shape-rendering:geometricPrecision; text-rendering:geometricPrecision; image-rendering:optimizeQuality; fill-rule:evenodd; clip-rule:evenodd" xmlns:xlink="http://www.w3.org/1999/xlink">
<g><path style="opacity:0.971" fill="#000000" d="M 233.5,-0.5 C 248.167,-0.5 262.833,-0.5 277.5,-0.5C 377.766,12.0408 449.266,64.0408 492,155.5C 502.296,180.684 508.796,206.684 511.5,233.5C 511.5,248.167 511.5,262.833 511.5,277.5C 498.959,377.766 446.959,449.266 355.5,492C 330.316,502.296 304.316,508.796 277.5,511.5C 262.833,511.5 248.167,511.5 233.5,511.5C 133.234,498.959 61.734,446.959 19,355.5C 8.70393,330.316 2.20393,304.316 -0.5,277.5C -0.5,262.833 -0.5,248.167 -0.5,233.5C 10.5899,141.787 56.2566,73.287 136.5,28C 167.171,12.4204 199.505,2.92039 233.5,-0.5 Z M 243.5,39.5 C 331.713,38.6742 398.546,75.6742 444,150.5C 481.775,223.566 480.441,295.9 440,367.5C 388.696,444.229 316.863,478.062 224.5,469C 155.179,456.947 102.679,420.78 67,360.5C 29.2252,287.434 30.5586,215.1 71,143.5C 111.454,80.8446 168.954,46.1779 243.5,39.5 Z"/></g>
<g><path style="opacity:0.965" fill="#000000" d="M 151.5,233.5 C 220.834,233.333 290.167,233.5 359.5,234C 371.527,238.37 376.36,246.87 374,259.5C 370.987,268.267 364.82,273.1 355.5,274C 288.833,274.667 222.167,274.667 155.5,274C 139.081,270.684 133.248,260.85 138,244.5C 141.213,239.107 145.713,235.441 151.5,233.5 Z"/></g>
</svg>
