<?xml version="1.0" encoding="UTF-8"?>
<!DOCTYPE svg PUBLIC "-//W3C//DTD SVG 1.1//EN" "http://www.w3.org/Graphics/SVG/1.1/DTD/svg11.dtd">
<svg xmlns="http://www.w3.org/2000/svg" version="1.1" width="512px" height="512px" style="shape-rendering:geometricPrecision; text-rendering:geometricPrecision; image-rendering:optimizeQuality; fill-rule:evenodd; clip-rule:evenodd" xmlns:xlink="http://www.w3.org/1999/xlink">
<g><path style="opacity:0.996" fill="#ff0000" d="M 236.5,75.5 C 314.63,71.141 373.797,102.141 414,168.5C 437.374,213.595 442.041,260.595 428,309.5C 402.059,382.101 350.893,423.934 274.5,435C 196.341,439.843 137.174,409.01 97,342.5C 73.6259,297.405 68.9592,250.405 83,201.5C 109.11,128.883 160.276,86.8834 236.5,75.5 Z"/></g>
<g><path style="opacity:1" fill="#fffbed" d="M 209.5,173.5 C 212.649,173.211 215.649,173.711 218.5,175C 259.337,198.919 300.337,222.586 341.5,246C 350.756,252.25 350.756,258.583 341.5,265C 300.337,288.414 259.337,312.081 218.5,336C 212.866,338.776 208.366,337.609 205,332.5C 204.333,281.167 204.333,229.833 205,178.5C 206.025,176.313 207.525,174.646 209.5,173.5 Z"/></g>
</svg>
