<?xml version="1.0" encoding="UTF-8"?>
<!DOCTYPE svg PUBLIC "-//W3C//DTD SVG 1.1//EN" "http://www.w3.org/Graphics/SVG/1.1/DTD/svg11.dtd">
<svg xmlns="http://www.w3.org/2000/svg" version="1.1" width="512px" height="512px" style="shape-rendering:geometricPrecision; text-rendering:geometricPrecision; image-rendering:optimizeQuality; fill-rule:evenodd; clip-rule:evenodd" xmlns:xlink="http://www.w3.org/1999/xlink">
<g><path style="opacity:0.998" fill="#2196f3" d="M 232.5,-0.5 C 247.833,-0.5 263.167,-0.5 278.5,-0.5C 378.271,12.4486 449.438,64.4486 492,155.5C 502.136,180.379 508.636,206.046 511.5,232.5C 511.5,247.833 511.5,263.167 511.5,278.5C 498.551,378.271 446.551,449.438 355.5,492C 330.622,502.136 304.955,508.636 278.5,511.5C 263.167,511.5 247.833,511.5 232.5,511.5C 132.727,498.549 61.5605,446.549 19,355.5C 8.86392,330.621 2.36392,304.954 -0.5,278.5C -0.5,263.167 -0.5,247.833 -0.5,232.5C 12.4486,132.729 64.4486,61.5622 155.5,19C 180.379,8.86392 206.046,2.36392 232.5,-0.5 Z"/></g>
<g><path style="opacity:1" fill="#f9f9f9" d="M 276.5,140.5 C 276.5,171.833 276.5,203.167 276.5,234.5C 307.5,234.5 338.5,234.5 369.5,234.5C 385.433,237.955 391.267,247.622 387,263.5C 383.622,271.034 377.788,275.367 369.5,276.5C 338.5,276.5 307.5,276.5 276.5,276.5C 276.5,307.833 276.5,339.167 276.5,370.5C 272.579,384.642 263.246,390.475 248.5,388C 240.858,384.552 236.192,378.718 234.5,370.5C 234.5,339.167 234.5,307.833 234.5,276.5C 203.167,276.5 171.833,276.5 140.5,276.5C 126.051,272.833 120.218,263.499 123,248.5C 126.481,240.849 132.314,236.182 140.5,234.5C 171.833,234.5 203.167,234.5 234.5,234.5C 234.5,203.167 234.5,171.833 234.5,140.5C 239.368,123.901 250.035,118.734 266.5,125C 272.074,128.737 275.408,133.904 276.5,140.5 Z"/></g>
<g><path style="opacity:1" fill="#68b6f5" d="M 234.5,140.5 C 234.5,171.833 234.5,203.167 234.5,234.5C 203.167,234.5 171.833,234.5 140.5,234.5C 171.329,233.502 202.329,233.169 233.5,233.5C 233.169,202.329 233.502,171.329 234.5,140.5 Z"/></g>
<g><path style="opacity:1" fill="#69b7f5" d="M 276.5,140.5 C 277.498,171.329 277.831,202.329 277.5,233.5C 308.338,233.169 339.005,233.502 369.5,234.5C 338.5,234.5 307.5,234.5 276.5,234.5C 276.5,203.167 276.5,171.833 276.5,140.5 Z"/></g>
<g><path style="opacity:1" fill="#68b6f5" d="M 140.5,276.5 C 171.833,276.5 203.167,276.5 234.5,276.5C 234.5,307.833 234.5,339.167 234.5,370.5C 233.502,339.671 233.169,308.671 233.5,277.5C 202.329,277.831 171.329,277.498 140.5,276.5 Z"/></g>
<g><path style="opacity:1" fill="#68b6f4" d="M 369.5,276.5 C 339.005,277.498 308.338,277.831 277.5,277.5C 277.831,308.671 277.498,339.671 276.5,370.5C 276.5,339.167 276.5,307.833 276.5,276.5C 307.5,276.5 338.5,276.5 369.5,276.5 Z"/></g>
</svg>
