<?xml version="1.0" encoding="UTF-8"?>
<!DOCTYPE svg PUBLIC "-//W3C//DTD SVG 1.1//EN" "http://www.w3.org/Graphics/SVG/1.1/DTD/svg11.dtd">
<svg xmlns="http://www.w3.org/2000/svg" version="1.1" width="512px" height="512px" style="shape-rendering:geometricPrecision; text-rendering:geometricPrecision; image-rendering:optimizeQuality; fill-rule:evenodd; clip-rule:evenodd" xmlns:xlink="http://www.w3.org/1999/xlink">
<g><path style="opacity:0.991" fill="#000000" d="M 36.5,20.5 C 182.5,20.3333 328.5,20.5 474.5,21C 482.333,23.5 487.5,28.6667 490,36.5C 490.667,182.5 490.667,328.5 490,474.5C 487.5,482.333 482.333,487.5 474.5,490C 328.5,490.667 182.5,490.667 36.5,490C 28.6667,487.5 23.5,482.333 21,474.5C 20.3333,328.5 20.3333,182.5 21,36.5C 23.685,28.6498 28.8517,23.3165 36.5,20.5 Z M 209.5,106.5 C 221.179,106.252 229.013,111.585 233,122.5C 233.667,211.167 233.667,299.833 233,388.5C 229.893,398.273 223.226,403.606 213,404.5C 200.651,402.818 193.651,395.818 192,383.5C 191.5,347.835 191.333,312.168 191.5,276.5C 180.147,276.168 168.814,276.501 157.5,277.5C 162.291,281.741 166.124,286.741 169,292.5C 170.872,308.084 164.039,317.084 148.5,319.5C 144.186,318.843 140.186,317.343 136.5,315C 120.667,299.167 104.833,283.333 89,267.5C 84.3333,259.5 84.3333,251.5 89,243.5C 104.833,227.667 120.667,211.833 136.5,196C 151.385,188.359 162.219,192.192 169,207.5C 170.266,213.595 169.266,219.262 166,224.5C 163.069,227.388 160.235,230.388 157.5,233.5C 168.814,234.499 180.147,234.832 191.5,234.5C 191.333,198.832 191.5,163.165 192,127.5C 193.34,116.667 199.173,109.667 209.5,106.5 Z M 294.5,106.5 C 306.012,105.834 313.845,110.834 318,121.5C 319.462,159.132 319.962,196.799 319.5,234.5C 330.853,234.832 342.186,234.499 353.5,233.5C 348.709,229.259 344.876,224.259 342,218.5C 340.149,203.206 346.815,194.206 362,191.5C 366.52,192.009 370.686,193.509 374.5,196C 390.333,211.833 406.167,227.667 422,243.5C 426.667,251.5 426.667,259.5 422,267.5C 406.167,283.333 390.333,299.167 374.5,315C 359.609,322.638 348.776,318.805 342,303.5C 340.734,297.405 341.734,291.738 345,286.5C 347.931,283.612 350.765,280.612 353.5,277.5C 342.186,276.501 330.853,276.168 319.5,276.5C 319.667,312.168 319.5,347.835 319,383.5C 317.349,395.818 310.349,402.818 298,404.5C 287.774,403.606 281.107,398.273 278,388.5C 277.333,299.833 277.333,211.167 278,122.5C 280.778,114.22 286.278,108.887 294.5,106.5 Z"/></g>
</svg>
